<svg width="200" height="200" viewBox="0 0 200 200" fill="none" xmlns="http://www.w3.org/2000/svg">
<path d="M166.667 50H91.2222L78.3889 32.3333C77.3545 30.9178 75.9999 29.7671 74.4356 28.9754C72.8714 28.1836 71.1421 27.7732 69.3889 27.7778H33.3333C30.3865 27.7778 27.5603 28.9484 25.4766 31.0321C23.3929 33.1159 22.2222 35.942 22.2222 38.8889V161.111C22.2222 164.058 23.3929 166.884 25.4766 168.968C27.5603 171.052 30.3865 172.222 33.3333 172.222H166.667C169.614 172.222 172.44 171.052 174.523 168.968C176.607 166.884 177.778 164.058 177.778 161.111V61.1111C177.778 58.1643 176.607 55.3381 174.523 53.2544C172.44 51.1706 169.614 50 166.667 50ZM33.3333 61.1111V38.8889H69.3889L84.5 61.1111H33.3333Z" fill="#3CB371"/>
</svg>
